<svg width="208" height="26" viewBox="0 0 208 26" fill="none" xmlns="http://www.w3.org/2000/svg">
<path d="M56.77 7H60.47L63.47 11.89L66.47 7H70.17V19.6H66.72V12.34L63.49 17.29H63.42L60.2 12.36V19.6H56.77V7Z" fill="white"/>
<path d="M72.7702 14.76C72.7431 14.0961 72.8511 13.4335 73.0876 12.8125C73.3241 12.1915 73.6841 11.625 74.146 11.1472C74.6079 10.6695 75.1619 10.2904 75.7745 10.0331C76.3872 9.77572 77.0457 9.64541 77.7102 9.65002C81.0702 9.65002 82.6202 12.13 82.6202 15C82.6202 15.22 82.6202 15.47 82.6202 15.7H76.0602C76.1544 16.1818 76.4225 16.6121 76.8134 16.909C77.2044 17.2059 77.6908 17.3486 78.1802 17.31C78.5907 17.3069 78.9958 17.2161 79.3683 17.0436C79.7409 16.8711 80.0722 16.621 80.3402 16.31L82.2402 17.88C81.7453 18.5261 81.1033 19.0447 80.3676 19.3926C79.6318 19.7405 78.8236 19.9076 78.0102 19.88C77.3209 19.924 76.63 19.8227 75.9824 19.5826C75.3347 19.3425 74.7447 18.9689 74.2507 18.4862C73.7567 18.0035 73.3696 17.4223 73.1145 16.7804C72.8595 16.1385 72.7422 15.4502 72.7702 14.76ZM79.4202 13.91C79.4256 13.4493 79.249 13.005 78.9289 12.6736C78.6088 12.3423 78.1708 12.1505 77.7102 12.14C76.8002 12.14 76.1902 12.83 76.0102 13.91H79.4202Z" fill="white"/>
<path d="M84.6401 14.7599C84.6401 11.5899 86.6401 9.64991 88.9601 9.64991C89.5357 9.6331 90.1072 9.75196 90.6284 9.99691C91.1496 10.2419 91.6058 10.606 91.9601 11.0599V6.40991H95.3901V19.5999H91.9601V18.2999C91.6234 18.7802 91.1736 19.1702 90.6503 19.4353C90.1271 19.7004 89.5466 19.8325 88.9601 19.8199C86.6501 19.8199 84.6401 17.8899 84.6401 14.7599ZM92.0101 14.7599C92.0101 14.2295 91.7994 13.7208 91.4244 13.3457C91.0493 12.9706 90.5406 12.7599 90.0101 12.7599C89.4797 12.7599 88.971 12.9706 88.5959 13.3457C88.2209 13.7208 88.0101 14.2295 88.0101 14.7599C88.0101 15.2903 88.2209 15.7991 88.5959 16.1741C88.971 16.5492 89.4797 16.7599 90.0101 16.7599C90.5406 16.7599 91.0493 16.5492 91.4244 16.1741C91.7994 15.7991 92.0101 15.2903 92.0101 14.7599Z" fill="white"/>
<path d="M98.1401 6.40991H101.7V8.93991H98.1401V6.40991ZM98.2101 9.82991H101.62V19.5999H98.2101V9.82991Z" fill="white"/>
<path d="M104.08 14.7601C104.076 14.0794 104.209 13.4048 104.471 12.7767C104.733 12.1486 105.12 11.58 105.607 11.1047C106.095 10.6295 106.673 10.2575 107.307 10.011C107.942 9.76449 108.62 9.64853 109.3 9.67007C110.126 9.62898 110.949 9.80825 111.683 10.1895C112.418 10.5708 113.038 11.1404 113.48 11.8401L111.16 13.5701C110.964 13.2652 110.694 13.014 110.377 12.8394C110.059 12.6648 109.702 12.5722 109.34 12.5701C109.066 12.5784 108.798 12.6428 108.55 12.7592C108.302 12.8756 108.081 13.0415 107.9 13.2468C107.719 13.4521 107.583 13.6923 107.498 13.9526C107.414 14.2129 107.384 14.4877 107.41 14.7601C107.377 15.0414 107.405 15.3264 107.491 15.5962C107.576 15.8661 107.719 16.1146 107.908 16.3255C108.097 16.5363 108.328 16.7045 108.587 16.8191C108.846 16.9337 109.127 16.992 109.41 16.9901C109.78 16.9864 110.145 16.8937 110.472 16.7196C110.799 16.5456 111.08 16.2953 111.29 15.9901L113.58 17.6501C113.119 18.374 112.475 18.9627 111.712 19.3562C110.95 19.7498 110.097 19.934 109.24 19.8901C108.559 19.9121 107.88 19.7947 107.246 19.5451C106.612 19.2955 106.036 18.9189 105.553 18.4385C105.07 17.9581 104.69 17.384 104.436 16.7514C104.183 16.1189 104.062 15.4412 104.08 14.7601Z" fill="white"/>
<path d="M115.17 16.8C115.17 14.75 116.71 13.73 119 13.73C119.799 13.7218 120.593 13.8468 121.35 14.1V13.94C121.35 12.94 120.72 12.33 119.4 12.33C118.47 12.3395 117.55 12.5261 116.69 12.88L115.99 10.47C117.24 9.94652 118.585 9.68775 119.94 9.70997C120.609 9.64992 121.283 9.72523 121.922 9.9314C122.561 10.1376 123.152 10.4704 123.66 10.91C124.04 11.3259 124.33 11.8162 124.51 12.3498C124.691 12.8834 124.759 13.4487 124.71 14.01V19.6H121.33V18.6C120.968 19.0054 120.522 19.3272 120.023 19.543C119.524 19.7588 118.984 19.8636 118.44 19.85C118.02 19.888 117.596 19.837 117.197 19.7002C116.798 19.5634 116.432 19.3439 116.123 19.056C115.815 18.7682 115.57 18.4185 115.406 18.0297C115.242 17.6409 115.161 17.2219 115.17 16.8ZM121.39 16.06V15.61C120.955 15.4459 120.495 15.3612 120.03 15.36C119.03 15.36 118.46 15.83 118.46 16.57C118.46 16.7226 118.493 16.8734 118.556 17.0125C118.619 17.1516 118.71 17.2758 118.825 17.3769C118.939 17.478 119.073 17.5537 119.219 17.599C119.365 17.6444 119.519 17.6583 119.67 17.64C119.889 17.6595 120.11 17.633 120.318 17.5624C120.526 17.4918 120.717 17.3785 120.879 17.2298C121.041 17.0811 121.17 16.9002 121.258 16.6988C121.346 16.4974 121.391 16.2798 121.39 16.06Z" fill="white"/>
<path d="M127.37 9.82997H130.8V11.83C130.996 11.1765 131.409 10.6093 131.971 10.2221C132.533 9.83489 133.21 9.65072 133.89 9.69997V13.31H133.6C131.81 13.31 130.8 14.31 130.8 16.58V19.6H127.37V9.82997Z" fill="white"/>
<path d="M135.62 14.76C135.591 14.0966 135.698 13.4342 135.933 12.8133C136.169 12.1923 136.528 11.6257 136.989 11.1477C137.45 10.6698 138.003 10.2906 138.615 10.0332C139.228 9.7757 139.886 9.64535 140.55 9.65002C143.92 9.65002 145.47 12.13 145.47 15C145.47 15.22 145.47 15.47 145.47 15.7H138.93C139.031 16.1653 139.296 16.5791 139.675 16.8669C140.055 17.1547 140.524 17.2977 141 17.27C141.412 17.2677 141.819 17.1773 142.193 17.0048C142.567 16.8323 142.9 16.5818 143.17 16.27L145.07 17.84C144.575 18.4861 143.933 19.0047 143.197 19.3526C142.461 19.7005 141.653 19.8676 140.84 19.84C140.156 19.8807 139.47 19.7782 138.828 19.5392C138.186 19.3002 137.6 18.9298 137.109 18.4518C136.618 17.9738 136.232 17.3986 135.975 16.7629C135.719 16.1272 135.598 15.4451 135.62 14.76ZM142.27 13.91C142.27 13.4491 142.09 13.0063 141.769 12.6758C141.448 12.3453 141.01 12.153 140.55 12.14C139.65 12.14 139.04 12.83 138.86 13.91H142.27Z" fill="white"/>
<path d="M148.72 7H157.86V8.3H150.15V12.61H157.05V13.92H150.15V18.3H158V19.6H148.77L148.72 7Z" fill="white"/>
<path d="M161.49 10.26H162.88V11.89C163.195 11.3213 163.66 10.8498 164.224 10.5271C164.788 10.2044 165.43 10.0429 166.08 10.06C166.571 10.0331 167.062 10.1128 167.52 10.2935C167.977 10.4742 168.39 10.7517 168.73 11.107C169.07 11.4622 169.329 11.8869 169.49 12.3517C169.65 12.8165 169.709 13.3106 169.66 13.8V19.6H168.27V14.15C168.27 12.41 167.33 11.33 165.68 11.33C165.299 11.3223 164.921 11.3938 164.569 11.54C164.217 11.6863 163.899 11.904 163.636 12.1795C163.373 12.455 163.17 12.7822 163.04 13.1404C162.909 13.4985 162.855 13.8798 162.88 14.26V19.6H161.49V10.26Z" fill="white"/>
<path d="M173.52 10.26H174.91V12.7C175.2 11.9247 175.722 11.2583 176.407 10.7926C177.091 10.327 177.903 10.085 178.73 10.1V11.6H178.62C176.62 11.6 174.91 13.06 174.91 15.88V19.6H173.52V10.26Z" fill="white"/>
<path d="M181.16 14.9999C181.16 13.7083 181.673 12.4696 182.587 11.5563C183.5 10.643 184.739 10.1299 186.03 10.1299C187.322 10.1299 188.561 10.643 189.474 11.5563C190.387 12.4696 190.9 13.7083 190.9 14.9999C190.896 15.6385 190.766 16.27 190.518 16.8583C190.269 17.4465 189.907 17.9799 189.451 18.4277C188.996 18.8756 188.457 19.2291 187.865 19.468C187.272 19.7069 186.639 19.8265 186 19.8199C185.364 19.8265 184.734 19.7065 184.145 19.4669C183.556 19.2273 183.021 18.8728 182.57 18.4242C182.12 17.9755 181.763 17.4417 181.521 16.8538C181.279 16.2659 181.156 15.6357 181.16 14.9999ZM189.47 14.9999C189.494 14.5264 189.423 14.0529 189.26 13.6076C189.098 13.1623 188.847 12.7544 188.523 12.4081C188.199 12.0619 187.809 11.7844 187.375 11.5923C186.942 11.4002 186.474 11.2973 186 11.2899C185.535 11.2934 185.075 11.3909 184.649 11.5766C184.222 11.7623 183.838 12.0324 183.518 12.3705C183.199 12.7087 182.951 13.108 182.79 13.5444C182.629 13.9808 182.557 14.4452 182.58 14.9099C182.559 15.3761 182.631 15.842 182.792 16.28C182.953 16.718 183.201 17.1193 183.519 17.4603C183.838 17.8013 184.222 18.0752 184.648 18.2658C185.074 18.4563 185.534 18.5597 186 18.5699C186.466 18.5743 186.927 18.4842 187.357 18.305C187.786 18.1259 188.175 17.8614 188.499 17.5277C188.824 17.1939 189.077 16.7978 189.244 16.3633C189.411 15.9288 189.488 15.465 189.47 14.9999Z" fill="white"/>
<path d="M194.44 6.40991H195.83V19.5999H194.44V6.40991Z" fill="white"/>
<path d="M200.1 6.40991H201.49V19.5999H200.1V6.40991Z" fill="white"/>
<path d="M203.68 6.82004H203V6.54004H204.63V6.82004H204V8.60004H203.71L203.68 6.82004ZM205.09 6.54004H205.41L206.14 7.67004L206.87 6.54004H207.18V8.60004H206.89V7.00004L206.16 8.12004L205.39 7.00004V8.60004H205.09V6.54004Z" fill="white"/>
<path d="M28.7198 4.88001L14.3398 4.99001L12.5698 0.87001L26.9498 0.76001L28.7198 4.88001Z" fill="white"/>
<path d="M32.2702 13.12L5.95018 13.33L4.18018 9.2L30.5002 9L32.2702 13.12Z" fill="white"/>
<path d="M41.55 8.92005L30.5 9.00005L28.73 4.88005L39.78 4.80005L41.55 8.92005Z" fill="white"/>
<path d="M45.09 17.16L34.05 17.24L32.27 13.12L43.32 13.04L45.09 17.16Z" fill="white"/>
<path d="M48.6398 25.4L37.5898 25.49L35.8198 21.37L46.8698 21.28L48.6398 25.4Z" fill="white"/>
<path d="M35.82 21.37L9.49998 21.57L7.72998 17.45L34.05 17.24L35.82 21.37Z" fill="white"/>
<path opacity="0.7" d="M12.5699 0.870117L0.629883 0.960117L4.16988 9.20012L16.1099 9.11012L12.5699 0.870117Z" fill="white"/>
<path d="M9.98998 1.58008L10.59 2.38008L11.43 2.37008L10.96 2.87008L11.57 3.67007L10.67 3.18008L10.2 3.68008L10.12 2.88008L9.22998 2.39008L10.07 2.38008L9.98998 1.58008Z" fill="#052A63"/>
<path d="M7.13988 1.6001L7.74988 2.4001L8.58988 2.3901L8.11988 2.8901L8.71988 3.6901L7.82988 3.2001L7.35988 3.7001L7.27988 2.9001L6.37988 2.4101L7.22988 2.4001L7.13988 1.6001Z" fill="#052A63"/>
<path d="M3.3999 2.42988L4.2399 2.41988L4.1599 1.62988L4.7599 2.41988L5.5999 2.40988L5.1299 2.90988L5.7399 3.70988L4.8399 3.21988L4.3799 3.71988L4.2899 2.91988L3.3999 2.42988Z" fill="#052A63"/>
<path d="M4.25 4.70991H5.09L5.01 3.90991L5.61 4.69991H6.45L5.99 5.18991L6.59 5.98991L5.7 5.49991L5.23 5.99991L5.14 5.19991L4.25 4.70991Z" fill="#052A63"/>
<path d="M6.63017 7.77994L6.16018 8.27994L6.08018 7.47994L5.18018 6.98994H6.02018L5.94018 6.18994L6.55017 6.97994H7.39017L6.92018 7.46994L7.52018 8.26994L6.63017 7.77994Z" fill="#052A63"/>
<path d="M7.22998 4.68988L8.07998 4.67988L7.98998 3.87988L8.59998 4.67988L9.43998 4.66988L8.96998 5.16988L9.56998 5.96988L8.67998 5.47988L8.20998 5.97988L8.12998 5.17988L7.22998 4.68988Z" fill="#052A63"/>
<path d="M9.60992 7.75991L9.13992 8.25991L9.05992 7.45991L8.16992 6.96991L9.00992 6.95991L8.92992 6.15991L9.52992 6.95991L10.3699 6.94991L9.89992 7.44991L10.5099 8.24991L9.60992 7.75991Z" fill="#052A63"/>
<path d="M10.0801 4.66986L10.9201 4.65986L10.8401 3.85986L11.4401 4.65986L12.2801 4.64986L11.8101 5.14986L12.4201 5.94986L11.5201 5.45986L11.0601 5.95986L10.9701 5.15986L10.0801 4.66986Z" fill="#052A63"/>
<path d="M11.9898 8.24014L11.9098 7.44014L11.0098 6.95014L11.8498 6.94014L11.7698 6.14014L12.3798 6.94014L13.2198 6.93014L12.7498 7.43014L13.3498 8.23014L12.4598 7.74014L11.9898 8.24014Z" fill="#052A63"/>
</svg>
